<mxfile host="app.diagrams.net" modified="2021-08-22T03:01:09.073Z" agent="5.0 (Macintosh; Intel Mac OS X 10_15_7) AppleWebKit/605.1.15 (KHTML, like Gecko) Version/14.1.1 Safari/605.1.15" etag="04y2r2X1Bv6JdYuY-jvn" version="14.9.8" type="github">
  <diagram id="Xwd_KZjN8ccXiCpuvWrR" name="第 1 页">
    <mxGraphModel dx="946" dy="501" grid="1" gridSize="10" guides="1" tooltips="1" connect="1" arrows="1" fold="1" page="1" pageScale="1" pageWidth="827" pageHeight="1169" math="0" shadow="0">
      <root>
        <mxCell id="0" />
        <mxCell id="1" parent="0" />
        <mxCell id="2A9e8eh_rucwIgxKBVCo-14" value="" style="group" vertex="1" connectable="0" parent="1">
          <mxGeometry x="110" y="160" width="610" height="370" as="geometry" />
        </mxCell>
        <mxCell id="2A9e8eh_rucwIgxKBVCo-1" value="会话1" style="rounded=0;whiteSpace=wrap;html=1;fontSize=16;fillColor=#dae8fc;strokeColor=#6c8ebf;" vertex="1" parent="2A9e8eh_rucwIgxKBVCo-14">
          <mxGeometry width="193.65079365079367" height="92.49999999999999" as="geometry" />
        </mxCell>
        <mxCell id="2A9e8eh_rucwIgxKBVCo-2" value="会话2" style="rounded=0;whiteSpace=wrap;html=1;fontSize=16;fillColor=#dae8fc;strokeColor=#6c8ebf;" vertex="1" parent="2A9e8eh_rucwIgxKBVCo-14">
          <mxGeometry x="193.65079365079367" width="213.015873015873" height="92.49999999999999" as="geometry" />
        </mxCell>
        <mxCell id="2A9e8eh_rucwIgxKBVCo-3" value="会话3" style="rounded=0;whiteSpace=wrap;html=1;fontSize=16;fillColor=#dae8fc;strokeColor=#6c8ebf;" vertex="1" parent="2A9e8eh_rucwIgxKBVCo-14">
          <mxGeometry x="406.66666666666663" width="203.33333333333331" height="92.49999999999999" as="geometry" />
        </mxCell>
        <mxCell id="2A9e8eh_rucwIgxKBVCo-4" value="begin;&lt;br style=&quot;font-size: 16px&quot;&gt;select * from t_test where b = 10 for update;&lt;br style=&quot;font-size: 16px&quot;&gt;&lt;span style=&quot;color: rgb(51 , 51 , 51) ; font-family: &amp;#34;helvetica neue&amp;#34; , &amp;#34;helvetica&amp;#34; , &amp;#34;arial&amp;#34; , sans-serif ; font-size: 16px ; text-align: left&quot;&gt;（查询一个不存在的记录）&lt;/span&gt;" style="rounded=0;whiteSpace=wrap;html=1;fontSize=16;align=center;fontFamily=Times New Roman;fillColor=#fff2cc;strokeColor=#d6b656;" vertex="1" parent="2A9e8eh_rucwIgxKBVCo-14">
          <mxGeometry y="92.49999999999999" width="193.65079365079367" height="92.49999999999999" as="geometry" />
        </mxCell>
        <mxCell id="2A9e8eh_rucwIgxKBVCo-5" value="" style="rounded=0;whiteSpace=wrap;html=1;fontSize=16;fontFamily=Times New Roman;" vertex="1" parent="2A9e8eh_rucwIgxKBVCo-14">
          <mxGeometry x="193.65079365079367" y="92.49999999999999" width="213.015873015873" height="92.49999999999999" as="geometry" />
        </mxCell>
        <mxCell id="2A9e8eh_rucwIgxKBVCo-6" value="" style="rounded=0;whiteSpace=wrap;html=1;fontSize=16;fontFamily=Times New Roman;" vertex="1" parent="2A9e8eh_rucwIgxKBVCo-14">
          <mxGeometry x="406.66666666666663" y="92.49999999999999" width="203.33333333333331" height="92.49999999999999" as="geometry" />
        </mxCell>
        <mxCell id="2A9e8eh_rucwIgxKBVCo-7" value="" style="rounded=0;whiteSpace=wrap;html=1;fontSize=16;align=center;fontFamily=Times New Roman;" vertex="1" parent="2A9e8eh_rucwIgxKBVCo-14">
          <mxGeometry y="184.99999999999997" width="193.65079365079367" height="92.49999999999999" as="geometry" />
        </mxCell>
        <mxCell id="2A9e8eh_rucwIgxKBVCo-8" value="insert into t_test value(9,9,9);&amp;nbsp;&lt;br&gt;（阻塞）" style="rounded=0;whiteSpace=wrap;html=1;fontSize=16;fontFamily=Times New Roman;fillColor=#f8cecc;strokeColor=#b85450;" vertex="1" parent="2A9e8eh_rucwIgxKBVCo-14">
          <mxGeometry x="193.65079365079367" y="184.99999999999997" width="213.015873015873" height="92.49999999999999" as="geometry" />
        </mxCell>
        <mxCell id="2A9e8eh_rucwIgxKBVCo-9" value="" style="rounded=0;whiteSpace=wrap;html=1;fontSize=16;fontFamily=Times New Roman;" vertex="1" parent="2A9e8eh_rucwIgxKBVCo-14">
          <mxGeometry x="406.66666666666663" y="184.99999999999997" width="203.33333333333331" height="92.49999999999999" as="geometry" />
        </mxCell>
        <mxCell id="2A9e8eh_rucwIgxKBVCo-10" value="" style="rounded=0;whiteSpace=wrap;html=1;fontSize=16;align=center;fontFamily=Times New Roman;" vertex="1" parent="2A9e8eh_rucwIgxKBVCo-14">
          <mxGeometry y="277.5" width="193.65079365079367" height="92.49999999999999" as="geometry" />
        </mxCell>
        <mxCell id="2A9e8eh_rucwIgxKBVCo-11" value="" style="rounded=0;whiteSpace=wrap;html=1;fontSize=16;fontFamily=Times New Roman;" vertex="1" parent="2A9e8eh_rucwIgxKBVCo-14">
          <mxGeometry x="193.65079365079367" y="277.5" width="213.015873015873" height="92.49999999999999" as="geometry" />
        </mxCell>
        <mxCell id="2A9e8eh_rucwIgxKBVCo-12" value="update t_test set a=100 where b = 16&lt;span style=&quot;font-size: 16px&quot;&gt;&lt;br style=&quot;font-size: 16px&quot;&gt;（正常）&lt;br style=&quot;font-size: 16px&quot;&gt;&lt;/span&gt;" style="rounded=0;whiteSpace=wrap;html=1;fontSize=16;fontFamily=Times New Roman;align=center;fillColor=#d5e8d4;strokeColor=#82b366;" vertex="1" parent="2A9e8eh_rucwIgxKBVCo-14">
          <mxGeometry x="406.66666666666663" y="277.5" width="203.33333333333331" height="92.49999999999999" as="geometry" />
        </mxCell>
      </root>
    </mxGraphModel>
  </diagram>
</mxfile>
